<svg width="256" height="256" viewBox="0 0 256 256" fill="none" xmlns="http://www.w3.org/2000/svg">
    <path d="M124.754 28.4205L28.3497 124.825C27.8993 125.275 27.5421 125.81 27.2984 126.398C27.0547 126.987 26.9292 127.617 26.9292 128.254C26.9292 128.891 27.0547 129.522 27.2984 130.11C27.5422 130.699 27.8994 131.233 28.3498 131.684L124.754 228.082C125.664 228.991 126.897 229.502 128.183 229.502C129.47 229.502 130.703 228.991 131.613 228.082L228.011 131.684C228.92 130.774 229.431 129.541 229.431 128.254C229.431 126.968 228.921 125.734 228.011 124.825L131.613 28.4206C131.162 27.9702 130.628 27.613 130.039 27.3692C129.451 27.1255 128.82 27 128.183 27C127.547 27 126.916 27.1254 126.327 27.3692C125.739 27.6129 125.204 27.9701 124.754 28.4205ZM131.613 39.415L217.017 124.825C217.926 125.734 218.437 126.968 218.437 128.254C218.437 129.54 217.926 130.774 217.016 131.684L131.613 217.087C130.703 217.997 129.47 218.508 128.183 218.508C126.897 218.508 125.664 217.997 124.754 217.087L39.3443 131.684C38.8939 131.233 38.5366 130.699 38.2929 130.11C38.0492 129.522 37.9237 128.891 37.9237 128.254C37.9237 127.617 38.0491 126.987 38.2928 126.398C38.5366 125.81 38.8938 125.275 39.3442 124.825L124.754 39.4149C125.204 38.9646 125.739 38.6073 126.327 38.3636C126.916 38.1199 127.547 37.9944 128.183 37.9945C128.82 37.9945 129.451 38.1199 130.039 38.3637C130.628 38.6074 131.162 38.9647 131.613 39.415Z"
          fill="black"/>
    <path d="M19.9946 131.521C18.0539 129.57 18.054 126.418 19.9949 124.468L75.6398 68.5467C77.1479 67.0311 77.19 64.595 75.7351 63.0282C74.1992 61.3742 71.5971 61.326 70.0011 62.9221L8.46446 124.459C6.51196 126.411 6.51183 129.577 8.46417 131.529L69.9956 193.071C71.5916 194.667 74.1939 194.619 75.7298 192.965C77.1846 191.398 77.1426 188.962 75.6347 187.447L19.9946 131.521Z"
          fill="black"/>
    <path d="M236.275 131.521C238.215 129.57 238.215 126.418 236.274 124.468L180.629 68.5467C179.121 67.0311 179.079 64.595 180.534 63.0282C182.07 61.3742 184.672 61.326 186.268 62.9221L247.805 124.459C249.757 126.411 249.757 129.577 247.805 131.529L186.273 193.071C184.678 194.667 182.075 194.619 180.539 192.965C179.085 191.398 179.126 188.962 180.634 187.447L236.275 131.521Z"
          fill="black"/>
    <path d="M124.754 28.4205L28.3497 124.825C27.8993 125.275 27.5421 125.81 27.2984 126.398C27.0547 126.987 26.9292 127.617 26.9292 128.254C26.9292 128.891 27.0547 129.522 27.2984 130.11C27.5422 130.699 27.8994 131.233 28.3498 131.684L124.754 228.082C125.664 228.991 126.897 229.502 128.183 229.502C129.47 229.502 130.703 228.991 131.613 228.082L228.011 131.684C228.92 130.774 229.431 129.541 229.431 128.254C229.431 126.968 228.921 125.734 228.011 124.825L131.613 28.4206C131.162 27.9702 130.628 27.613 130.039 27.3692C129.451 27.1255 128.82 27 128.183 27C127.547 27 126.916 27.1254 126.327 27.3692C125.739 27.6129 125.204 27.9701 124.754 28.4205ZM131.613 39.415L217.017 124.825C217.926 125.734 218.437 126.968 218.437 128.254C218.437 129.54 217.926 130.774 217.016 131.684L131.613 217.087C130.703 217.997 129.47 218.508 128.183 218.508C126.897 218.508 125.664 217.997 124.754 217.087L39.3443 131.684C38.8939 131.233 38.5366 130.699 38.2929 130.11C38.0492 129.522 37.9237 128.891 37.9237 128.254C37.9237 127.617 38.0491 126.987 38.2928 126.398C38.5366 125.81 38.8938 125.275 39.3442 124.825L124.754 39.4149C125.204 38.9646 125.739 38.6073 126.327 38.3636C126.916 38.1199 127.547 37.9944 128.183 37.9945C128.82 37.9945 129.451 38.1199 130.039 38.3637C130.628 38.6074 131.162 38.9647 131.613 39.415Z"
          stroke="#9C2E2E"/>
    <path d="M19.9946 131.521C18.0539 129.57 18.054 126.418 19.9949 124.468L75.6398 68.5467C77.1479 67.0311 77.19 64.595 75.7351 63.0282C74.1992 61.3742 71.5971 61.326 70.0011 62.9221L8.46446 124.459C6.51196 126.411 6.51183 129.577 8.46417 131.529L69.9956 193.071C71.5916 194.667 74.1939 194.619 75.7298 192.965C77.1846 191.398 77.1426 188.962 75.6347 187.447L19.9946 131.521Z"
          stroke="#9C2E2E"/>
    <path d="M236.275 131.521C238.215 129.57 238.215 126.418 236.274 124.468L180.629 68.5467C179.121 67.0311 179.079 64.595 180.534 63.0282C182.07 61.3742 184.672 61.326 186.268 62.9221L247.805 124.459C249.757 126.411 249.757 129.577 247.805 131.529L186.273 193.071C184.678 194.667 182.075 194.619 180.539 192.965C179.085 191.398 179.126 188.962 180.634 187.447L236.275 131.521Z"
          stroke="#9C2E2E"/>
</svg>
