<?xml version="1.0" encoding="UTF-8" standalone="no"?>
<!-- Created with Inkscape (http://www.inkscape.org/) -->

<svg
   version="0.0"
   width="63.876953"
   height="63.876953"
   xmlns="http://www.w3.org/2000/svg"
>
  <path
     id="path2418"
     d="M 31.939453,0 A 31.938707,31.938707 0 0 0 0,31.939453 a 31.938707,31.938707 0 0 0 31.939453,31.9375 31.938707,31.938707 0 0 0 31.9375,-31.9375 A 31.938707,31.938707 0 0 0 31.939453,0 Z m 0,3.5917969 A 28.346457,28.346457 0 0 1 60.285156,31.939453 28.346457,28.346457 0 0 1 31.939453,60.285156 28.346457,28.346457 0 0 1 3.5917969,31.939453 28.346457,28.346457 0 0 1 31.939453,3.5917969 Z" />
  <defs
     id="defs2460" />
</svg>
