<?xml version="1.0" encoding="UTF-8" standalone="no"?>
<!-- Created with Inkscape (http://www.inkscape.org/) -->

<svg
        version="0.0"
        width="63.876953"
        height="63.876953"
        id="svg3639"
        xmlns="http://www.w3.org/2000/svg"
>
    <path
            d="M 31.939164,9.4384766 A 22.500162,22.500162 0 0 0 9.4384767,31.939165 22.500162,22.500162 0 0 0 31.939164,54.438477 22.500162,22.500162 0 0 0 54.438476,31.939165 22.500162,22.500162 0 0 0 31.939164,9.4384766 Z m 0,2.5303484 A 19.969496,19.969496 0 0 1 51.908129,31.939165 19.969496,19.969496 0 0 1 31.939164,51.90813 19.969496,19.969496 0 0 1 11.968824,31.939165 19.969496,19.969496 0 0 1 31.939164,11.968825 Z"
            id="path3629"
            style="stroke-width:0.983987"/>
    <defs
            id="defs3633"/>
</svg>
