<?xml version="1.0" encoding="UTF-8" standalone="no"?>

<svg version="0.0" width="63.876953" height="63.876953" id="svg3639" xmlns="http://www.w3.org/2000/svg"
   xmlns:svg="http://www.w3.org/2000/svg">
   <path
      d="M 30.878793,1.0626133 1.0626133,30.878793 a 1.4999541,1.4999541 89.999124 0 0 3.24e-5,2.121288 L 30.87876,62.814372 a 1.5000459,1.5000459 179.99912 0 0 2.121353,-3.2e-5 L 62.81434,33.000113 a 1.5000459,1.5000459 90.000876 0 0 3.2e-5,-2.121353 L 33.000081,1.0626457 a 1.4999541,1.4999541 8.7588976e-4 0 0 -2.121288,-3.24e-5 z m 2.121284,3.400427 26.413908,26.4157167 a 1.5000513,1.5000513 90.00098 0 1 -3.6e-5,2.121356 L 33.000113,59.413949 a 1.5000513,1.5000513 179.99902 0 1 -2.121356,3.6e-5 L 4.4630403,33.000077 A 1.4999487,1.4999487 89.99902 0 1 4.463004,30.878793 L 30.878793,4.463004 a 1.4999487,1.4999487 9.804247e-4 0 1 2.121284,3.63e-5 z" />
</svg>