<?xml version="1.0" encoding="UTF-8" standalone="no"?>
<svg
   id="Layer_1"
   data-name="Layer 1"
   viewBox="0 0 311.9 311.9"
   version="1.1"
   xmlns="http://www.w3.org/2000/svg"
   xmlns:svg="http://www.w3.org/2000/svg">
  <defs
     id="defs9319">
    <style
       id="style9317">
            .cls-3 {
                fill: #30a49f;
            }

        </style>
  </defs>
  <path
     id="Path_3"
     data-name="Path 3"
     class="cls-3"
     d="m 226.7,202.2 h -37.6 c 15.25395,-8.75987 25.42508,-24.2598 27.39,-41.74 l 10.35017,-0.0729 c 1.89602,0.0167 6.63216,-1.21235 6.60552,-4.44518 -0.0439,-3.69964 -3.04589,-5.54969 -6.74569,-5.5219 H 216.49 C 212.29646,120.46833 186.13373,98.537936 155.91,99.64 125.69003,98.543179 99.533183,120.47226 95.34,150.42 l -10.674762,0.12153 c -3.599144,0.0805 -6.247808,2.71775 -6.275238,4.61532 0.03846,3.70592 3.074088,5.34201 6.78,5.30315 h 10.18 c 1.965558,17.4827 12.14108,32.98366 27.4,41.74 l -38.187681,0.19445 c -4.333822,0.11041 -6.228962,2.53779 -6.250932,4.44087 0.03846,3.70039 3.118224,5.45354 6.818613,5.41468 h 142.24491 c 3.87036,-0.12918 6.05881,-2.89397 6.08078,-4.79547 -0.0439,-3.70357 -3.052,-5.28786 -6.75569,-5.25453 z M 113.37,120.28 c 13.67,-16.56 43.81,-14.23 67.34,5.19 8.32039,6.75538 15.03271,15.27815 19.65,24.95 H 108 c -3.13335,-10.32731 -1.13732,-21.53036 5.37,-30.14 z m 38.86,40.19 h 51.67 c 3.108,10.32332 1.10174,21.51011 -5.4,30.11 -13.67,16.56 -43.82,14.22 -67.33,-5.2 -8.32907,-6.74932 -15.04585,-15.27341 -19.66,-24.95 z"
     style="stroke:#67ada5;stroke-opacity:1;stroke-width:6;stroke-miterlimit:4;stroke-dasharray:none;fill:#67ada5;fill-opacity:1" />
</svg>
