<svg id="Layer_1" data-name="Layer 1" xmlns="http://www.w3.org/2000/svg" viewBox="0 0 311.9 311.9">
    <defs>
        <style>
            .cls-3 {
                fill: #30a49f;
            }
        </style>
    </defs>
        <path id="Path_1" data-name="Path 1" class="cls-3"
            d="M226.69,150.93H216.52a59,59,0,0,0-60.58-50.78,59,59,0,0,0-60.58,50.78H81.89a3.43,3.43,0,0,0-3.47,3.4A6.72,6.72,0,0,0,85.19,161H95.36a59,59,0,0,0,60.58,50.78A59,59,0,0,0,216.52,161H230a3.43,3.43,0,0,0,3.47-3.4A6.7,6.7,0,0,0,226.69,150.93ZM113.36,120.82c13.67-16.56,43.82-14.22,67.33,5.2a72,72,0,0,1,19.65,25H108a33.75,33.75,0,0,1,5.37-30.19Zm85.16,70.34c-13.67,16.55-43.82,14.22-67.34-5.2a72.21,72.21,0,0,1-19.65-25h92.36a33.77,33.77,0,0,1-5.36,30.11Z" />
</svg>