<svg id="Layer_1" data-name="Layer 1" xmlns="http://www.w3.org/2000/svg" viewBox="0 0 311.9 311.9">
    <defs>
        <style>
            .cls-3 {
                fill: #30a49f;
            }
        </style>
    </defs>
<path id="Path_4" data-name="Path 4" class="cls-3"
            d="M226.7,202.72H189.12A54.75,54.75,0,0,0,216.78,156a54.81,54.81,0,0,0-27.66-46.77H230a3.44,3.44,0,0,0,3.48-3.4,6.7,6.7,0,0,0-6.77-6.64H81.9a3.43,3.43,0,0,0-3.47,3.4,6.7,6.7,0,0,0,6.76,6.64h37.59A54.79,54.79,0,0,0,95.12,156a54.75,54.75,0,0,0,27.66,46.76H81.9a3.45,3.45,0,0,0-3.47,3.42,6.69,6.69,0,0,0,6.77,6.63H230a3.44,3.44,0,0,0,3.47-3.41A6.72,6.72,0,0,0,226.7,202.72ZM113.37,120.8C127,104.24,157.18,106.57,180.7,126s31.49,48.59,17.82,65.14-43.81,14.23-67.34-5.19-31.49-48.6-17.81-65.16Z" />
       
</svg>