<svg
   width="187.08151"
   height="289"
   viewBox='0 0 289 187'
   xmlns="http://www.w3.org/2000/svg"
>

  <path
     d="m 154.08151,0 h 18 c 8.31,0 15,6.69 15,15 v 259 c 0,8.31 -6.69,15 -15,15 h -18 c -8.31,0 -15,-6.69 -15,-15 V 15 c 0,-8.31 6.69,-15 15,-15 z"
   />
  <path
     d="M 48.706054,198.64307 V 159.5708 a 5,5 45 0 0 -5,-5 H 5 a 5,5 45 0 1 -5,-5 v -10.50781 a 5,5 135 0 1 5,-5 h 38.706054 a 5,5 135 0 0 5,-5 V 90.35693 a 5,5 135 0 1 5,-5 h 10.751947 a 5,5 45 0 1 5,5 v 38.70606 a 5,5 45 0 0 5,5 h 38.706059 a 5,5 45 0 1 5,5 v 10.50781 a 5,5 135 0 1 -5,5 H 74.458001 a 5,5 135 0 0 -5,5 v 39.07227 a 5,5 135 0 1 -5,5 H 53.706054 a 5,5 45 0 1 -5,-5 z"
   />
</svg>
