<?xml version="1.0" encoding="UTF-8" standalone="no"?>
<!-- Created with Inkscape (http://www.inkscape.org/) -->

<svg
   width="197.42033mm"
   height="34.062592mm"
   viewBox="0 0 197.42033 34.062592"
   version="1.1"
   id="svg5"
   xmlns="http://www.w3.org/2000/svg"
   xmlns:svg="http://www.w3.org/2000/svg">
  <defs
     id="defs2">
    <linearGradient
       id="linearGradient1137">
      <stop
         style="stop-color:#ffffff;stop-opacity:1;"
         offset="0"
         id="stop1135" />
    </linearGradient>
    <style
       id="style18">
            .cls-3 {
                fill: #30a49f;
            }
        </style>
    <style
       id="style9317">
            .cls-3 {
                fill: #30a49f;
            }

        </style>
    <style
       id="style6019">
            .cls-3 {
                fill: #30a49f;
            }
        </style>
  </defs>
  <g
     id="layer1"
     transform="translate(-11.141472,-131.46871)">
    <rect
       style="fill:none;stroke:#8f8f8f;stroke-width:2.3;stroke-linecap:round;stroke-linejoin:round;stroke-miterlimit:100;stroke-dasharray:none;stroke-opacity:1;fill-opacity:1"
       id="rect1418"
       width="18.865"
       height="18.864908"
       x="201.88266"
       y="-10.736848"
       transform="rotate(45)" />
    <g
       transform="matrix(0.34402203,0,0,0.34402203,30.618472,103.45964)"
       id="layer1-6"
       style="fill:none;fill-opacity:1;stroke:#8f8f8f;stroke-width:6.68562;stroke-miterlimit:100;stroke-dasharray:none;stroke-opacity:1">
      <rect
         style="fill:none;fill-opacity:1;stroke:#8f8f8f;stroke-width:6.68562;stroke-linejoin:round;stroke-miterlimit:100;stroke-dasharray:none;stroke-opacity:1"
         id="rect1418-4"
         width="64.633926"
         height="64.633926"
         x="140.97375"
         y="-20.454748"
         transform="rotate(45)" />
      <circle
         style="fill:none;fill-opacity:1;stroke:#8f8f8f;stroke-width:6.68562;stroke-linejoin:round;stroke-miterlimit:100;stroke-dasharray:none;stroke-opacity:1"
         id="path1442"
         cx="114.12409"
         cy="130.82843"
         r="31.938707" />
    </g>
    <g
       id="g852"
       transform="matrix(0.22517528,0,0,0.22517528,75.000088,112.25696)"
       style="fill:#8f8f8f;fill-opacity:1;stroke:#8f8f8f;stroke-opacity:1">
      <path
         id="Path_8"
         data-name="Path 8"
         class="cls-3"
         d="m 216.53,149.37 10.64555,-0.0504 c 4.5708,-0.11496 6.27248,-2.88856 6.29445,-4.78612 -0.0385,-3.7004 -3.06961,-5.2423 -6.77,-5.20344 h -10.18 c -1.9694,-17.48661 -12.14801,-32.99034 -27.41,-41.75 h 38.28652 c 4.5374,-0.405759 6.02134,-3.035241 6.03782,-4.933555 C 233.39039,88.946804 230.3998,87.51221 226.7,87.54 L 84.646133,87.664824 c -4.647718,0.108052 -6.227366,2.727071 -6.216133,4.646528 0.03297,3.698792 3.061265,5.357498 6.76,5.318648 h 37.59 c -15.25929,8.76078 -25.434357,24.26476 -27.4,41.75 H 84.825323 c -4.319212,0.20475 -6.346244,2.57869 -6.362718,4.477 0.03297,3.70432 3.033137,5.60185 6.737395,5.563 h 10.16 c 1.968677,17.48157 12.14335,32.98124 27.4,41.74 l -38.009042,0.0357 c -4.128894,0.42916 -6.288797,2.75836 -6.305294,4.65825 0.04394,3.69964 3.034539,5.38388 6.734336,5.35609 l 141.5164,0.0252 c 5.50611,-0.18511 6.7571,-3.02321 6.7736,-4.9231 -0.0439,-3.69964 -3.0702,-5.17991 -6.77,-5.15212 h -37.58 c 15.27484,-8.76535 25.45587,-24.28761 27.41,-41.79 z M 108,139.33 c -3.06159,-10.26129 -1.05653,-21.36713 5.4,-29.91 13.67,-16.56 43.82,-14.23 67.33,5.19 8.25742,6.69841 14.93601,15.13543 19.56,24.71 H 108 Z m 23.25,35.23 c -8.38883,-6.80804 -15.14164,-15.41309 -19.76,-25.18 h 92.41 c 3.21387,10.3884 1.23814,21.68843 -5.31,30.37 -13.68,16.54 -43.83,14.22 -67.35,-5.18 z"
         style="fill:#8f8f8f;fill-opacity:1;stroke:#8f8f8f;stroke-width:4.44098;stroke-miterlimit:4;stroke-dasharray:none;stroke-opacity:1" />
      <path
         id="Path_9"
         data-name="Path 9"
         class="cls-3"
         d="m 226.7,224.32 -141.217602,0.0126 c -3.919227,-0.0677 -6.908324,2.57912 -6.924821,4.47901 0.03297,3.70432 2.128938,5.51633 6.642423,5.55843 h 141.54684 c 4.29339,-0.26627 6.54988,-2.72292 6.57185,-4.62048 -0.0439,-3.69964 -2.61627,-4.87729 -6.61869,-5.42952 z"
         style="fill:#8f8f8f;fill-opacity:1;stroke:#8f8f8f;stroke-width:4.44098;stroke-miterlimit:4;stroke-dasharray:none;stroke-opacity:1" />
    </g>
    <path
       id="Path_3"
       data-name="Path 3"
       class="cls-3"
       d="m 46.10747,159.24801 h -8.73329 c 3.54301,-2.03465 5.90545,-5.63479 6.36183,-9.69488 l 2.40402,-0.0169 c 0.44038,0.003 1.54043,-0.28158 1.53425,-1.03246 -0.0104,-0.85933 -0.70747,-1.28903 -1.56681,-1.28258 h -2.37146 c -0.97402,-6.95682 -7.0508,-12.05055 -14.070813,-11.79458 -7.01914,-0.25476 -13.094545,4.83868 -14.068488,11.79458 l -2.479408,0.0283 c -0.835968,0.0186 -1.451169,0.63124 -1.45754,1.07199 0.0089,0.86076 0.714014,1.24078 1.574779,1.23176 h 2.364491 c 0.456537,4.06067 2.819987,7.66105 6.364151,9.69488 l -8.869787,0.0452 c -1.006609,0.0256 -1.44679,0.58945 -1.451893,1.03148 0.0089,0.85947 0.724265,1.26669 1.583748,1.25765 h 33.03898 c 0.89896,-0.03 1.40727,-0.67217 1.41238,-1.11383 -0.0104,-0.86023 -0.70889,-1.22821 -1.56914,-1.22046 z M 19.784506,140.22058 c 3.175107,-3.84636 10.175672,-3.30517 15.640944,1.20548 1.93256,1.56906 3.49162,3.54862 4.56407,5.79509 H 18.537225 c -0.727778,-2.39871 -0.264163,-5.00082 1.247281,-7.00057 z m 9.025945,9.33486 H 40.81176 c 0.72188,2.39778 0.2559,4.99612 -1.25426,6.9936 -3.1751,3.84636 -10.177992,3.30285 -15.638619,-1.20779 -1.934579,-1.56765 -3.494674,-3.54754 -4.566395,-5.79509 z"
       style="fill:#8f8f8f;fill-opacity:1;stroke:#8f8f8f;stroke-width:1;stroke-miterlimit:4;stroke-dasharray:none;stroke-opacity:1" />
    <path
       id="Path_4"
       data-name="Path 4"
       class="cls-3"
       d="m 206.5347,159.04157 h -8.47671 c 3.79768,-2.16158 6.1703,-6.16915 6.23912,-10.53836 -0.0676,-4.37249 -2.44,-8.38399 -6.23912,-10.54963 l 8.53488,-0.0155 c 1.06822,-0.0299 1.45845,-0.55935 1.46341,-0.9879 -0.008,-0.83556 -0.68377,-1.27002 -1.51932,-1.26126 l -31.9238,-0.006 c -0.99838,-0.0105 -1.52464,0.65672 -1.52835,1.08491 0.008,0.83468 0.69562,1.19275 1.5303,1.18524 h 8.47895 c -3.79977,2.16497 -6.17244,6.17689 -6.2391,10.54963 0.0656,4.37245 2.43869,8.38417 6.2391,10.54739 l -8.57411,0.0219 c -0.80173,-0.0244 -1.42593,0.62762 -1.42966,1.05652 0.008,0.83521 0.69189,1.19849 1.52707,1.18846 l 31.97938,-0.008 c 0.80848,-0.0195 1.46131,-0.58875 1.46503,-1.01729 -0.0127,-0.63645 -0.52621,-1.25715 -1.52707,-1.2509 z m -25.5632,-18.47821 c 3.07445,-3.73535 9.88197,-3.20978 15.18724,1.17293 5.30528,4.38271 7.10303,10.96016 4.01957,14.69325 -3.08348,3.73309 -9.88198,3.20978 -15.18951,-1.17068 -5.30752,-4.38046 -7.10302,-10.96242 -4.0173,-14.69776 z"
       style="fill:#8f8f8f;fill-opacity:1;stroke:#8f8f8f;stroke-width:1;stroke-miterlimit:4;stroke-dasharray:none;stroke-opacity:1" />
  </g>
</svg>
