<?xml version="1.0" encoding="UTF-8" standalone="no"?>
<svg
   id="Layer_1"
   data-name="Layer 1"
   viewBox="0 0 311.9 311.9"
   version="1.1"
   xmlns="http://www.w3.org/2000/svg"
   xmlns:svg="http://www.w3.org/2000/svg">
  <defs
     id="defs20">
    <style
       id="style18">
            .cls-3 {
                fill: #30a49f;
            }
        </style>
  </defs>
  <path
     id="Path_8"
     data-name="Path 8"
     class="cls-3"
     d="m 216.53,149.37 10.64555,-0.0504 c 4.5708,-0.11496 6.27248,-2.88856 6.29445,-4.78612 -0.0385,-3.7004 -3.06961,-5.2423 -6.77,-5.20344 h -10.18 c -1.9694,-17.48661 -12.14801,-32.99034 -27.41,-41.75 h 38.28652 c 4.5374,-0.405759 6.02134,-3.035241 6.03782,-4.933555 C 233.39039,88.946804 230.3998,87.51221 226.7,87.54 L 84.646133,87.664824 c -4.647718,0.108052 -6.227366,2.727071 -6.216133,4.646528 0.03297,3.698792 3.061265,5.357498 6.76,5.318648 h 37.59 c -15.25929,8.76078 -25.434357,24.26476 -27.4,41.75 H 84.825323 c -4.319212,0.20475 -6.346244,2.57869 -6.362718,4.477 0.03297,3.70432 3.033137,5.60185 6.737395,5.563 h 10.16 c 1.968677,17.48157 12.14335,32.98124 27.4,41.74 l -38.009042,0.0357 c -4.128894,0.42916 -6.288797,2.75836 -6.305294,4.65825 0.04394,3.69964 3.034539,5.38388 6.734336,5.35609 l 141.5164,0.0252 c 5.50611,-0.18511 6.7571,-3.02321 6.7736,-4.9231 -0.0439,-3.69964 -3.0702,-5.17991 -6.77,-5.15212 h -37.58 c 15.27484,-8.76535 25.45587,-24.28761 27.41,-41.79 z M 108,139.33 c -3.06159,-10.26129 -1.05653,-21.36713 5.4,-29.91 13.67,-16.56 43.82,-14.23 67.33,5.19 8.25742,6.69841 14.93601,15.13543 19.56,24.71 H 108 Z m 23.25,35.23 c -8.38883,-6.80804 -15.14164,-15.41309 -19.76,-25.18 h 92.41 c 3.21387,10.3884 1.23814,21.68843 -5.31,30.37 -13.68,16.54 -43.83,14.22 -67.35,-5.18 z"
     style="stroke-width:6;stroke-miterlimit:4;stroke-dasharray:none;stroke:#67ada5;stroke-opacity:1;fill:#67ada5;fill-opacity:1" />
  <path
     id="Path_9"
     data-name="Path 9"
     class="cls-3"
     d="m 226.7,224.32 -141.217602,0.0126 c -3.919227,-0.0677 -6.908324,2.57912 -6.924821,4.47901 0.03297,3.70432 2.128938,5.51633 6.642423,5.55843 h 141.54684 c 4.29339,-0.26627 6.54988,-2.72292 6.57185,-4.62048 -0.0439,-3.69964 -2.61627,-4.87729 -6.61869,-5.42952 z"
     style="stroke:#67ada5;stroke-width:6;stroke-miterlimit:4;stroke-dasharray:none;stroke-opacity:1;fill:#67ada5;fill-opacity:1" />
</svg>
