<?xml version="1.0" encoding="UTF-8" standalone="no"?>
<svg
   id="Layer_1"
   data-name="Layer 1"
   viewBox="0 0 311.9 311.9"
   version="1.1"
   xmlns="http://www.w3.org/2000/svg"
   xmlns:svg="http://www.w3.org/2000/svg">
  <defs
     id="defs2296">
    <style
       id="style2294">
            .cls-3 {
                fill: #30a49f;
            }
        </style>
  </defs>
  <path
     id="Path_6"
     data-name="Path 6"
     class="cls-3"
     d="m 226.7,190.83 h -37.58 c 17.06075,-9.37792 27.66156,-27.3017 27.66156,-46.77 0,-19.4683 -10.60081,-37.39208 -27.66156,-46.77 l 38.16442,-0.103123 c 4.26786,0.01666 6.09486,-2.741511 6.11683,-4.637481 C 233.39173,89.915363 230.3998,87.22221 226.7,87.25 l -141.713085,0.07292 c -3.964301,0.0021 -6.540441,2.838539 -6.556915,4.736853 -0.04545,3.167971 3.05739,5.269074 6.76,5.230228 h 37.59 c -17.06075,9.37792 -27.661558,27.3017 -27.661558,46.77 0,19.4683 10.600808,37.39208 27.661558,46.77 l -38.032545,0.0687 c -3.964604,0.25279 -6.346493,2.47025 -6.357455,4.37248 0.04394,3.69964 3.070203,5.63656 6.77,5.60877 l 142.06907,-0.0486 c 3.82173,0.0111 6.22443,-2.53939 6.24093,-4.44087 -0.0385,-3.70039 -3.06961,-5.59938 -6.77,-5.56052 z M 113.37,108.9 c 13.67,-16.56 43.81,-14.23 67.34,5.19 23.53,19.42 31.49,48.59 17.82,65.14 -13.67,16.55 -43.82,14.23 -67.33,-5.23 -23.51,-19.46 -31.51,-48.55 -17.83,-65.1 z"
     style="stroke-width:6;stroke-miterlimit:4;stroke-dasharray:none;stroke:#67ada5;stroke-opacity:1;fill:#67ada5;fill-opacity:1" />
  <path
     id="Path_7"
     data-name="Path 7"
     class="cls-3"
     d="m 226.7,224.61 -142.95,0.05 c -3.046024,-0.16666 -5.248026,3.05403 -5.27,4.95 0.02747,3.70271 3.00739,5.07885 6.71,5.04 l 141.41589,-0.0354 c 4.22947,0.0167 6.84214,-2.60004 6.86411,-4.49601 -0.0439,-3.69964 -3.0702,-5.53642 -6.77,-5.50863 z"
     style="stroke:#67ada5;stroke-width:6;stroke-miterlimit:4;stroke-dasharray:none;stroke-opacity:1;fill:#67ada5;fill-opacity:1" />
</svg>
