<svg id="Layer_1" data-name="Layer 1" xmlns="http://www.w3.org/2000/svg" viewBox="0 0 311.9 311.9">
    <defs>
        <style>
            .cls-3 {
                fill: #30a49f;
            }
        </style>
    </defs>
<path id="Path_6" data-name="Path 6" class="cls-3"
                d="M226.7,190.83H189.12a53.37,53.37,0,0,0,0-93.54H230a3.44,3.44,0,0,0,3.47-3.4,6.72,6.72,0,0,0-6.77-6.64H81.9a3.43,3.43,0,0,0-3.47,3.4,6.69,6.69,0,0,0,6.76,6.64h37.59a53.37,53.37,0,0,0,0,93.54H81.86a3.43,3.43,0,0,0-3.47,3.41,6.72,6.72,0,0,0,6.77,6.64H230a3.45,3.45,0,0,0,3.47-3.42A6.7,6.7,0,0,0,226.7,190.83ZM113.37,108.9c13.67-16.56,43.81-14.23,67.34,5.19s31.49,48.59,17.82,65.14S154.71,193.46,131.2,174,99.69,125.45,113.37,108.9Z" />
            <path id="Path_7" data-name="Path 7" class="cls-3"
                d="M226.7,214.61H81.9a3.44,3.44,0,0,0-3.47,3.4,6.69,6.69,0,0,0,6.76,6.64H230a3.44,3.44,0,0,0,3.47-3.4A6.72,6.72,0,0,0,226.7,214.61Z" />
        
</svg>