<svg id="Layer_1" data-name="Layer 1" xmlns="http://www.w3.org/2000/svg" viewBox="0 0 311.9 311.9">
    <defs>
        <style>
            .cls-3 {
                fill: #30a49f;
            }

        </style>
    </defs>
<path id="Path_3" data-name="Path 3" class="cls-3"
            d="M226.7,202.2H189.1a55.25,55.25,0,0,0,27.39-41.74H230a3.44,3.44,0,0,0,3.47-3.4,6.72,6.72,0,0,0-6.77-6.64H216.49a59,59,0,0,0-60.58-50.78,59,59,0,0,0-60.57,50.78H81.87a3.45,3.45,0,0,0-3.48,3.4,6.71,6.71,0,0,0,6.78,6.64H95.35a55.24,55.24,0,0,0,27.4,41.74H81.84a3.46,3.46,0,0,0-3.48,3.42,6.7,6.7,0,0,0,6.77,6.63H230a3.45,3.45,0,0,0,3.48-3.41,6.72,6.72,0,0,0-6.78-6.64ZM113.37,120.28c13.67-16.56,43.81-14.23,67.34,5.19a72.21,72.21,0,0,1,19.65,24.95H108A33.74,33.74,0,0,1,113.37,120.28Zm38.86,40.19H203.9a33.78,33.78,0,0,1-5.4,30.11c-13.67,16.56-43.82,14.22-67.33-5.2a72,72,0,0,1-19.66-24.95Z" />
        
</svg>