<svg id="Layer_1" data-name="Layer 1" xmlns="http://www.w3.org/2000/svg" viewBox="0 0 311.9 311.9">
    <defs>
        <style>
            .cls-3 {
                fill: #30a49f;
            }
        </style>
    </defs>
<path id="Path_2" data-name="Path 2" class="cls-3"
            d="M226.7,202.2H189.12a54.75,54.75,0,0,0,27.66-46.76c0-30.82-27.24-55.81-60.83-55.81s-60.83,25-60.83,55.81a54.75,54.75,0,0,0,27.66,46.76H81.9a3.45,3.45,0,0,0-3.47,3.42,6.69,6.69,0,0,0,6.77,6.63H230a3.44,3.44,0,0,0,3.47-3.41A6.72,6.72,0,0,0,226.7,202.2ZM113.37,120.28c13.67-16.56,43.81-14.23,67.34,5.19s31.49,48.59,17.82,65.14-43.82,14.23-67.34-5.2S99.69,136.83,113.37,120.28Z" />
        
</svg>