<svg id="Layer_1" data-name="Layer 1" xmlns="http://www.w3.org/2000/svg" viewBox="0 0 311.9 311.9">
    <defs>
        <style>
            .cls-3 {
                fill: #30a49f;
            }
        </style>
    </defs>
<path id="Path_5" data-name="Path 5" class="cls-3"
            d="M216.53,161H230a3.44,3.44,0,0,0,3.48-3.4,6.72,6.72,0,0,0-6.77-6.64H216.53a55.27,55.27,0,0,0-27.41-41.74H230a3.45,3.45,0,0,0,3.48-3.41,6.7,6.7,0,0,0-6.77-6.63H81.9a3.43,3.43,0,0,0-3.47,3.4,6.7,6.7,0,0,0,6.76,6.64h37.59a55.27,55.27,0,0,0-27.41,41.74H81.9a3.43,3.43,0,0,0-3.47,3.4A6.69,6.69,0,0,0,85.2,161H95.38a55.24,55.24,0,0,0,27.4,41.74H81.87a3.46,3.46,0,0,0-3.48,3.42,6.7,6.7,0,0,0,6.78,6.63H230a3.44,3.44,0,0,0,3.47-3.41,6.72,6.72,0,0,0-6.77-6.64H189.12A55.25,55.25,0,0,0,216.53,161Zm-103.16-40.2c13.68-16.55,43.82-14.22,67.34,5.2a72.12,72.12,0,0,1,19.66,25H108a33.77,33.77,0,0,1,5.37-30.15Zm17.83,65.14A72.15,72.15,0,0,1,111.54,161H203.9a33.78,33.78,0,0,1-5.4,30.11c-13.64,16.6-43.79,14.28-67.31-5.15Z" />
        
</svg>