<svg id="Layer_1" data-name="Layer 1" xmlns="http://www.w3.org/2000/svg" viewBox="0 0 311.9 311.9">
    <defs>
        <style>
            .cls-3 {
                fill: #30a49f;
            }
        </style>
    </defs>
<path id="Path_8" data-name="Path 8" class="cls-3"
                    d="M216.53,149.37H230a3.45,3.45,0,0,0,3.47-3.41,6.7,6.7,0,0,0-6.77-6.63H216.52a55.27,55.27,0,0,0-27.41-41.75H230a3.43,3.43,0,0,0,3.47-3.4,6.72,6.72,0,0,0-6.77-6.64H81.9A3.44,3.44,0,0,0,78.43,91a6.69,6.69,0,0,0,6.76,6.63h37.59a55.26,55.26,0,0,0-27.4,41.75H81.9a3.43,3.43,0,0,0-3.47,3.4,6.7,6.7,0,0,0,6.77,6.64H95.36a55.26,55.26,0,0,0,27.4,41.74H81.88a3.44,3.44,0,0,0-3.47,3.41,6.72,6.72,0,0,0,6.77,6.64H230a3.44,3.44,0,0,0,3.47-3.41,6.72,6.72,0,0,0-6.77-6.64H189.12A55.25,55.25,0,0,0,216.53,149.37ZM108,139.33a33.65,33.65,0,0,1,5.4-29.91c13.67-16.56,43.82-14.23,67.33,5.19a72.31,72.31,0,0,1,19.56,24.71H108Zm23.25,35.23a72.15,72.15,0,0,1-19.76-25.18h92.41a33.83,33.83,0,0,1-5.31,30.37c-13.68,16.54-43.83,14.22-67.35-5.18Z" />
                <path id="Path_9" data-name="Path 9" class="cls-3"
                    d="M226.7,214.32H81.9a3.44,3.44,0,0,0-3.47,3.41,6.7,6.7,0,0,0,6.77,6.64H230a3.45,3.45,0,0,0,3.47-3.41A6.72,6.72,0,0,0,226.7,214.32Z" />
            
</svg>